<svg width="2560" height="1964" viewBox="0 0 2560 1964" fill="none" xmlns="http://www.w3.org/2000/svg">
<g clip-path="url(#clip0_1_38)">
<g filter="url(#filter0_f_1_38)">
<path opacity="0.67" d="M916.71 -1052.28L1113.38 -1182.65L1840.36 -70.8406L1643.69 59.5302L916.71 -1052.28Z" fill="#4206EE"/>
<path d="M720.036 -921.909L916.707 -1052.28L1643.69 59.5295L1447.02 189.901L720.036 -921.909Z" fill="#2806B0"/>
<path d="M523.365 -791.535L720.036 -921.907L1447.02 189.903L1250.34 320.274L523.365 -791.535Z" fill="#051981"/>
<path d="M326.695 -661.165L523.366 -791.536L1250.35 320.273L1053.67 450.644L326.695 -661.165Z" fill="#10024C"/>
<path d="M130.025 -530.794L326.696 -661.165L1053.68 450.644L857.005 581.016L130.025 -530.794Z" fill="#020840"/>
<path d="M-66.6451 -400.423L130.026 -530.794L857.006 581.015L660.335 711.387L-66.6451 -400.423Z" fill="#03022F"/>
<path d="M-263.318 -270.052L-66.6464 -400.423L660.334 711.386L463.662 841.758L-263.318 -270.052Z" fill="#180B11" fill-opacity="0.68"/>
<path d="M-459.988 -139.68L-263.317 -270.052L463.663 841.758L266.992 972.129L-459.988 -139.68Z" fill="#06669C"/>
<path d="M-656.658 -9.30938L-459.987 -139.681L266.993 972.129L70.322 1102.5L-656.658 -9.30938Z" fill="#64E3EB"/>
<path d="M-853.329 121.061L-656.658 -9.31006L70.3222 1102.5L-126.349 1232.87L-853.329 121.061Z" fill="#55C39B"/>
</g>
</g>
<defs>
<filter id="filter0_f_1_38" x="-1453.33" y="-1782.65" width="3893.69" height="3615.52" filterUnits="userSpaceOnUse" color-interpolation-filters="sRGB">
<feFlood flood-opacity="0" result="BackgroundImageFix"/>
<feBlend mode="normal" in="SourceGraphic" in2="BackgroundImageFix" result="shape"/>
<feGaussianBlur stdDeviation="300" result="effect1_foregroundBlur_1_38"/>
</filter>
<clipPath id="clip0_1_38">
<rect width="2560" height="1964" fill="white"/>
</clipPath>
</defs>
</svg>
